HIERARCHY
ROOT Hips
{
	OFFSET 0.000000 0.000000 0.000000 
	CHANNELS 6 Xposition Yposition Zposition Yrotation Zrotation Xrotation 
	JOINT Lumbar
	{
		OFFSET 0.000000 0.000000 0.000000 
		CHANNELS 3 Zrotation Xrotation Yrotation
		JOINT Neck
		{
			OFFSET 0.000000 0.445665 0.000000 
			CHANNELS 3 Zrotation Xrotation Yrotation
			End Site
			{
				OFFSET 0.000000 0.227535 0.000000 
			}
		}
		JOINT RightShoulder
		{
			OFFSET 0.019635 0.377685 0.194865 
			CHANNELS 3 Zrotation Xrotation Yrotation
			JOINT RightElbow
			{
				OFFSET 0.000000 -0.243375 0.000000 
				CHANNELS 2 Zrotation Yrotation
				JOINT RightWrist
				{
					OFFSET 0.000000 -0.264825 0.000000 
					CHANNELS 2 Zrotation Xrotation
					End Site
					{
						OFFSET 0.006600 -0.176220 0.000990 
					}
				}
			}
		}
		JOINT LeftShoulder
		{
			OFFSET 0.019635 0.377685 -0.194865 
			CHANNELS 3 Zrotation Xrotation Yrotation
			JOINT LeftElbow
			{
				OFFSET 0.000000 -0.243375 0.000000 
				CHANNELS 2 Zrotation Yrotation
				JOINT LeftWrist
				{
					OFFSET 0.000000 -0.264825 0.000000 
					CHANNELS 2 Zrotation Xrotation
					End Site
					{
						OFFSET 0.006600 -0.176220 -0.000990 
					}
				}
			}
		}
	}
	JOINT RightHip
	{
		OFFSET 0.052140 -0.069960 0.075570 
		CHANNELS 3 Zrotation Xrotation Yrotation
		JOINT RightKnee
		{
			OFFSET 0.000000 -0.402270 0.000000 
			CHANNELS 1 Zrotation
			JOINT RightAnkle
			{
				OFFSET 0.000000 -0.404085 0.000000 
				CHANNELS 3 Zrotation Xrotation Yrotation
				End Site
				{
					OFFSET 0.204105 -0.089430 0.008415 
				}
			}
		}
	}
	JOINT LeftHip
	{
		OFFSET 0.052140 -0.069960 -0.075570 
		CHANNELS 3 Zrotation Xrotation Yrotation
		JOINT LeftKnee
		{
			OFFSET 0.000000 -0.402270 0.000000 
			CHANNELS 1 Zrotation
			JOINT LeftAnkle
			{
				OFFSET 0.000000 -0.404085 0.000000 
				CHANNELS 3 Zrotation Xrotation Yrotation
				End Site
				{
					OFFSET 0.204105 -0.089430 -0.008415 
				}
			}
		}
	}
}
MOTION
Frames: 13
Frame Time: 0.02
-0.04696 0.50492 -0.02233 203.47516 0 5.90109 7.14636 3.74478 1.9838 -37.37834 -11.87706 -16.8634 56.98731 10.70964 25.10428 90.88602 110.80645 -79.6687 -22.65351 123.80456 25.75191 -60.65221 94.38937 -37.20637 50.18681 8.21765 9.99024 -3.32956 -11.99805 -116.06696 20.97936 22.54008 11.16149 69.79773 -12.52369 1.91401 -120.97742 21.36722 -24.29448 -11.31636
-0.04993 0.5053 -0.02404 203.1124 0 6.05217 7.96427 3.66759 2.03828 -37.7823 -11.92196 -16.90975 57.0021 10.91201 25.80753 90.61843 109.96011 -79.70559 -23.01981 123.58453 26.31867 -60.62446 94.54156 -36.8658 50.66652 8.2502 9.84952 -3.18609 -11.68237 -115.87627 20.97197 22.52223 11.18761 69.70422 -12.52249 1.66379 -121.20648 21.36479 -24.25601 -11.25639
-0.05303 0.5058 -0.02557 202.67566 0 6.25017 8.8249 3.55172 2.09759 -38.12305 -12.00287 -16.94751 56.84203 10.99931 26.79655 90.5682 109.57119 -79.68667 -22.84229 123.29255 26.9481 -60.59894 94.83992 -36.52326 51.23162 8.27871 9.68869 -3.09825 -11.29755 -115.68813 20.9682 22.51657 11.2092 69.58913 -12.52228 1.44903 -121.42913 21.36202 -24.21498 -11.19488
-0.05607 0.50623 -0.02715 202.27589 0 6.42166 9.66751 3.46064 2.15703 -38.49788 -12.06081 -16.99279 56.74999 11.13442 27.66151 90.45633 108.9709 -79.69343 -22.90932 123.04247 27.55121 -60.5729 95.09038 -36.18151 51.73909 8.31008 9.53562 -2.98067 -10.95024 -115.49839 20.96265 22.50128 11.22691 69.48452 -12.52132 1.21818 -121.65746 21.35936 -24.1729 -11.13148
-0.05913 0.50673 -0.02883 201.85934 0 6.61486 10.50877 3.34033 2.20859 -38.85501 -12.14586 -17.02332 56.70764 11.29399 28.50192 90.18458 108.3534 -79.70144 -23.00949 122.75461 28.14819 -60.54462 95.26413 -35.83685 52.32783 8.33755 9.3879 -2.8806 -10.57393 -115.30902 20.9573 22.50155 11.26938 69.3758 -12.5215 0.98796 -121.87549 21.35686 -24.13868 -11.07651
-0.06217 0.50711 -0.03028 201.46182 0 6.77378 11.36101 3.27119 2.27572 -39.23061 -12.18344 -17.08202 56.51995 11.37214 29.46114 90.29723 107.90054 -79.69199 -22.89951 122.52755 28.77183 -60.52162 95.63223 -35.49841 52.76649 8.37218 9.22417 -2.75775 -10.24322 -115.11955 20.95255 22.47325 11.25982 69.2705 -12.51964 0.76462 -122.11232 21.35398 -24.08803 -11.00451
-0.06517 0.50714 -0.03112 201.12677 0 6.83004 12.23569 3.35384 2.40043 -39.69094 -12.07928 -17.22436 55.97099 11.26577 30.67992 91.43561 107.6908 -79.65459 -22.38578 122.49105 29.45132 -60.51236 96.49448 -35.18604 52.77477 8.42537 9.02471 -2.55898 -10.05103 -114.93587 20.94845 22.35925 11.10154 69.18654 -12.51151 0.55103 -122.41002 21.34998 -23.99288 -10.88681
-0.06815 0.50704 -0.03174 200.81509 0 6.84966 13.1186 3.48899 2.53786 -40.16807 -11.92663 -17.39451 55.28231 11.07843 32.00736 92.95046 107.65095 -79.59946 -21.66963 122.51734 30.15513 -60.50838 97.54729 -34.87924 52.62811 8.48617 8.80948 -2.33556 -9.90828 -114.75132 20.9449 22.21689 10.89207 69.10603 -12.5014 0.34317 -122.72542 21.34564 -23.88144 -10.75229
-0.07113 0.507 -0.03246 200.49849 0 6.88379 13.99575 3.59928 2.6588 -40.62525 -11.79738 -17.5496 54.65879 10.91969 33.28515 94.28253 107.60428 -79.54859 -21.0137 122.51123 30.84937 -60.50224 98.5182 -34.56466 52.54874 8.5449 8.59903 -2.12315 -9.74625 -114.56278 20.94122 22.09032 10.71019 69.01963 -12.49248 0.13292 -123.02766 21.34156 -23.77749 -10.62517
-0.07418 0.50697 -0.03318 200.15571 0 6.92838 14.88404 3.71243 2.82422 -41.13277 -11.66323 -17.7151 54.0211 10.79205 34.57732 95.67259 107.28369 -79.51422 -20.46904 122.51825 31.54099 -60.4953 99.47832 -34.27116 52.48488 8.59784 8.3972 -1.9131 -9.56859 -114.39174 20.93711 21.95229 10.51033 68.94982 -12.48237 -0.07708 -123.35103 21.33706 -23.67302 -10.49876
-0.07705 0.50688 -0.03386 199.87335 0 6.94211 15.74923 3.83264 2.9011 -41.53961 -11.52778 -17.865 53.38336 10.58136 35.85754 97.027 107.55841 -79.43899 -19.65689 122.51462 32.24127 -60.49111 100.49931 -33.93628 52.35167 8.66445 8.17487 -1.69203 -9.43579 -114.18533 20.934 21.83075 10.33528 68.84763 -12.47423 -0.28658 -123.63503 21.33333 -23.56584 -10.36716
-0.07947 0.50666 -0.03446 199.75811 0 6.87747 16.55908 3.9593 2.72021 -41.66997 -11.3963 -17.97053 52.76867 10.16698 37.11044 98.20166 109.51732 -79.28367 -18.11321 122.4593 32.97377 -60.4945 101.68276 -33.4772 52.05691 8.76878 7.8917 -1.44249 -9.41836 -113.8705 20.93353 21.76549 10.24579 68.6461 -12.47218 -0.4974 -123.80269 21.33195 -23.45523 -10.22328
-0.0817 0.50639 -0.03503 199.70219 0 6.78322 17.34317 4.0915 2.45162 -41.69782 -11.26576 -18.05845 52.16148 9.67211 38.3393 99.32367 112.0516 -79.08459 -16.3191 122.39281 33.71103 -60.50023 102.91201 -32.97869 51.69883 8.8861 7.59004 -1.1833 -9.44415 -113.52216 20.93403 21.71688 10.18212 68.41363 -12.47214 -0.7078 -123.93069 21.33135 -23.34254 -10.07521
